<?xml version="1.0" encoding="utf-8"?>
<!-- Generator: Adobe Illustrator 28.0.0, SVG Export Plug-In . SVG Version: 6.00 Build 0)  -->
<svg version="1.1" id="Layer_1" xmlns="http://www.w3.org/2000/svg" xmlns:xlink="http://www.w3.org/1999/xlink" x="0px" y="0px"
	 viewBox="0 0 256 256" style="enable-background:new 0 0 256 256;" xml:space="preserve">
<style type="text/css">
	.st0{display:none;fill:#FFFFFF;}
	.st1{display:none;fill:#DDEFFF;}
	.st2{fill:#2ECC71;}
	.st3{fill:#46E087;}
	.st4{fill:#2CC987;}
	.st5{fill:#008B61;}
	.st6{fill:#00A25F;}
	.st7{fill:#26A85A;}
	.st8{fill:#008B4A;}
</style>
<g>
	<path class="st0" d="M0,114.1L0,0l256,0v114.1c-12.3-0.3-24.3,1.1-36.2,4.2c-9.5,2.5-18.9,6.2-28.2,10.9c-3.2,1.6-6.4,3.2-9.5,4.6
		c-5.5,2.4-11,4.5-16.4,6.2c-12.8,4-25.3,6.1-37.6,6.1s-24.9-2-37.7-6.1l-2.3-0.8c-7.7-2.5-15.6-5.9-23.6-10
		c-9.3-4.8-18.7-8.4-28.2-10.9C24.3,115.2,12.3,113.8,0,114.1"/>
	<path class="st1" d="M0,114.1c12.3-0.3,24.3,1.1,36.2,4.2c9.5,2.5,18.9,6.2,28.2,10.9c8,4.1,15.9,7.5,23.6,10l2.3,0.8
		c12.8,4,25.4,6.1,37.7,6.1s24.9-2,37.6-6.1c5.4-1.7,10.9-3.8,16.4-6.2c3.2-1.4,6.3-2.9,9.5-4.6c9.3-4.8,18.7-8.4,28.2-10.9
		c11.9-3.1,23.9-4.5,36.2-4.2V256H0L0,114.1"/>
	<path class="st1" d="M32.4,115.3l-0.7-0.8l-0.1-1c1.7-5.5,4.1-10,7.2-13.5c0.2-0.2,0.5-0.4,0.8-0.5l0.9,0.1l0.6,0.7
		c2.3,4.1,3.6,9.1,4.1,14.8c0,0.3-0.1,0.6-0.3,0.9l-0.8,0.6l-3.2,0.7l-1.4,3.1l-0.7,0.6l-0.8,0.2l-0.8-0.1l-0.8-0.4l-0.4-0.7
		l-0.7-3.4C34.4,116.2,33.4,115.8,32.4,115.3"/>
	<path class="st1" d="M160.6,139.6l-0.5-0.4l-0.1-0.6c0.7-3.5,1.9-6.5,3.6-8.9l0.5-0.4h0.5c0.2,0.1,0.4,0.2,0.5,0.4
		c1.7,2.4,2.9,5.4,3.6,8.9l-0.1,0.6l-0.5,0.4l-2,0.6l-0.7,2.1l-0.3,0.4l-0.5,0.2h-0.5l-0.6-0.2l-0.3-0.4l-0.7-2.1L160.6,139.6"/>
	<path class="st1" d="M212.6,122.8l-0.4-0.4l-0.1-0.7c0.7-3.5,1.9-6.5,3.6-8.9l0.4-0.3h0.6l0.4,0.3c1.7,2.4,2.9,5.4,3.6,8.9
		l-0.1,0.7l-0.5,0.4l-1.9,0.7l-0.7,2l-0.3,0.5l-0.5,0.2h-0.5l-0.6-0.2l-0.3-0.5l-0.7-2L212.6,122.8"/>
	<path class="st1" d="M225.2,114.2l-0.8-0.6l-0.3-1c0.3-5.7,1.5-10.6,3.7-14.8l0.6-0.7l0.9-0.1c0.3,0,0.6,0.2,0.8,0.4
		c3.2,3.4,5.7,7.9,7.6,13.2c0.1,0.3,0.1,0.7-0.1,1.1l-0.6,0.8l-2.9,1.4l-0.7,3.4l-0.4,0.8c-0.2,0.2-0.4,0.3-0.8,0.3l-0.8,0.1
		l-0.8-0.1l-0.6-0.7l-1.6-3.1L225.2,114.2"/>
	<rect x="0" y="0" transform="matrix(-1 -4.490642e-11 4.490642e-11 -1 256 256)" class="st2" width="256" height="256"/>
	<path class="st3" d="M0,126.3l0-7c3.2-0.8,6.4-1.7,9.6-2.7c5.4-1.7,10.9-3.8,16.4-6.2l9.6-4.6c9.3-4.8,18.7-8.4,28.2-10.9
		c11.9-3.1,23.9-4.5,36.2-4.2c12.3-0.3,24.3,1.1,36.2,4.2c9.5,2.5,18.9,6.1,28.2,10.9c8,4.1,15.9,7.5,23.6,10l2.3,0.8
		c12.8,4,25.4,6.1,37.7,6.1c9.2,0,18.5-1.1,28-3.4v7c-9.5,1.9-18.8,2.8-28,2.8c-12.3,0-24.9-1.7-37.7-5.1l-2.3-0.6
		c-7.7-2.1-15.6-4.9-23.6-8.3c-9.3-4-18.7-7-28.2-9.1c-11.9-2.5-23.9-3.7-36.2-3.5c-12.3-0.2-24.3,1-36.2,3.5
		c-9.5,2.1-18.9,5.1-28.2,9.1l-9.6,3.8c-5.5,2-11,3.8-16.4,5.1L0,126.3"/>
	<path class="st2" d="M0,126.3l9.6-2.2c5.4-1.4,10.9-3.1,16.4-5.1l9.6-3.8c9.3-4,18.7-7,28.2-9.1c11.9-2.5,23.9-3.7,36.2-3.5
		c12.3-0.2,24.3,1,36.2,3.5c9.5,2.1,18.9,5.1,28.2,9.1c8,3.4,15.9,6.2,23.6,8.3l2.3,0.6c12.8,3.4,25.4,5.1,37.7,5.1
		c9.2,0,18.5-0.9,28-2.8v86.3H0L0,126.3"/>
	<path class="st4" d="M73.3,84.1c-1-0.2-1.8-0.8-2.4-1.6c-0.6-0.8-0.9-1.7-0.8-2.7c1.4-16.1,5.4-30,11.8-41.6
		c0.4-0.8,1.1-1.3,1.9-1.7l2.5-0.2c0.9,0.2,1.6,0.6,2.1,1.2c8.7,10.1,15.5,22.8,20.2,38.2c0.3,1,0.2,1.9-0.2,2.8
		c-0.4,0.9-1.1,1.6-2,2.1l-8.4,3.8l-2,9.6c-0.2,0.8-0.6,1.6-1.3,2.1c-0.6,0.6-1.4,0.9-2.2,0.9l-2.2,0.2c-0.9,0.1-1.7-0.1-2.4-0.5
		c-0.8-0.4-1.3-1-1.6-1.8L82.2,86L73.3,84.1"/>
	<path class="st4" d="M116,87.2c-0.5-0.3-0.9-0.7-1.1-1.2c-0.2-0.5-0.3-1.1-0.1-1.6c3-9.1,7.1-16.5,12.3-22.3
		c0.4-0.4,0.8-0.6,1.3-0.7l1.5,0.2c0.5,0.2,0.8,0.5,1,1c3.6,6.9,5.8,15.1,6.4,24.6c0,0.6-0.1,1.1-0.5,1.6s-0.8,0.8-1.4,0.9l-5.3,1.1
		l-2.5,5.2c-0.2,0.5-0.6,0.8-1.1,1c-0.4,0.3-0.8,0.4-1.3,0.3l-1.3-0.1c-0.5-0.1-0.9-0.3-1.4-0.7c-0.4-0.3-0.6-0.7-0.7-1.2l-1.1-5.7
		C119.2,88.8,117.6,88,116,87.2"/>
	<path class="st4" d="M7.5,110.1l-1.4-0.9c-0.3-0.5-0.5-1-0.4-1.6c0.6-9.5,2.6-17.7,6.2-24.7c0.3-0.5,0.6-0.8,1-1.1l1.5-0.2
		c0.5,0.1,0.9,0.3,1.3,0.8c5.3,5.7,9.5,13.1,12.6,22.1c0.2,0.5,0.1,1.1-0.1,1.6c-0.2,0.6-0.6,1-1.1,1.2l-4.9,2.4l-1,5.6
		c-0.1,0.5-0.4,0.9-0.8,1.2c-0.3,0.3-0.7,0.5-1.2,0.6l-1.3,0.2l-1.4-0.2l-1-0.9l-2.5-5.2L7.5,110.1"/>
	<path class="st5" d="M0,126.3l9.6-2.2c5.4-1.4,10.9-3.1,16.4-5.1l9.6-3.8c9.3-4,18.7-7,28.2-9.1c11.9-2.5,23.9-3.7,36.2-3.5
		c12.3-0.2,24.3,1,36.2,3.5c9.5,2.1,18.9,5.1,28.2,9.1c8,3.4,15.9,6.2,23.6,8.3l2.3,0.6c12.8,3.4,25.4,5.1,37.7,5.1
		c9.2,0,18.5-0.9,28-2.8v4c-9.5,1.9-18.8,2.8-28,2.8c-12.3,0-24.9-1.7-37.7-5.1l-2.3-0.6c-7.7-2.1-15.6-4.9-23.6-8.3
		c-9.3-4-18.7-7-28.2-9.1c-11.9-2.5-23.9-3.7-36.2-3.5c-12.3-0.2-24.3,1-36.2,3.5c-9.5,2.1-18.9,5.1-28.2,9.1l-9.6,3.8
		c-5.5,2-11,3.8-16.4,5.1L0,130.3L0,126.3"/>
	<path class="st6" d="M0,126.3l0-7c3.2-0.8,6.4-1.7,9.6-2.7c5.4-1.7,10.9-3.8,16.4-6.2l9.6-4.6c9.3-4.8,18.7-8.4,28.2-10.9
		c11.9-3.1,23.9-4.5,36.2-4.2c12.3-0.3,24.3,1.1,36.2,4.2c9.5,2.5,18.9,6.1,28.2,10.9c8,4.1,15.9,7.5,23.6,10l2.3,0.8
		c12.8,4,25.4,6.1,37.7,6.1c9.2,0,18.5-1.1,28-3.4v7c-9.5,1.9-18.8,2.8-28,2.8c-12.3,0-24.9-1.7-37.7-5.1l-2.3-0.6
		c-7.7-2.1-15.6-4.9-23.6-8.3c-9.3-4-18.7-7-28.2-9.1c-11.9-2.5-23.9-3.7-36.2-3.5c-12.3-0.2-24.3,1-36.2,3.5
		c-9.5,2.1-18.9,5.1-28.2,9.1l-9.6,3.8c-5.5,2-11,3.8-16.4,5.1L0,126.3"/>
	<path class="st7" d="M0,130.3l9.6-2.2c5.4-1.4,10.9-3.1,16.4-5.1l9.6-3.8c9.3-4,18.7-7,28.2-9.1c11.9-2.5,23.9-3.7,36.2-3.5
		c12.3-0.2,24.3,1,36.2,3.5c9.5,2.1,18.9,5.1,28.2,9.1c8,3.4,15.9,6.2,23.6,8.3l2.3,0.6c12.8,3.4,25.4,5.1,37.7,5.1
		c9.2,0,18.5-0.9,28-2.8V256H0L0,130.3"/>
	<path class="st8" d="M73.3,84.1c-1-0.2-1.8-0.8-2.4-1.6c-0.6-0.8-0.9-1.7-0.8-2.7c1.4-16.1,5.4-30,11.8-41.6
		c0.4-0.8,1.1-1.3,1.9-1.7l2.5-0.2c0.9,0.2,1.6,0.6,2.1,1.2c8.7,10.1,15.5,22.8,20.2,38.2c0.3,1,0.2,1.9-0.2,2.8
		c-0.4,0.9-1.1,1.6-2,2.1l-8.4,3.8l-2,9.6c-0.2,0.8-0.6,1.6-1.3,2.1c-0.6,0.6-1.4,0.9-2.2,0.9l-2.2,0.2c-0.9,0.1-1.7-0.1-2.4-0.5
		c-0.8-0.4-1.3-1-1.6-1.8L82.2,86L73.3,84.1"/>
	<path class="st8" d="M116,87.2c-0.5-0.3-0.9-0.7-1.1-1.2c-0.2-0.5-0.3-1.1-0.1-1.6c3-9.1,7.1-16.5,12.3-22.3
		c0.4-0.4,0.8-0.6,1.3-0.7l1.5,0.2c0.5,0.2,0.8,0.5,1,1c3.6,6.9,5.8,15.1,6.4,24.6c0,0.6-0.1,1.1-0.5,1.6s-0.8,0.8-1.4,0.9l-5.3,1.1
		l-2.5,5.2c-0.2,0.5-0.6,0.8-1.1,1c-0.4,0.3-0.8,0.4-1.3,0.3l-1.3-0.1c-0.5-0.1-0.9-0.3-1.4-0.7c-0.4-0.3-0.6-0.7-0.7-1.2l-1.1-5.7
		C119.2,88.8,117.6,88,116,87.2"/>
	<path class="st8" d="M7.5,110.1l-1.4-0.9c-0.3-0.5-0.5-1-0.4-1.6c0.6-9.5,2.6-17.7,6.2-24.7c0.3-0.5,0.6-0.8,1-1.1l1.5-0.2
		c0.5,0.1,0.9,0.3,1.3,0.8c5.3,5.7,9.5,13.1,12.6,22.1c0.2,0.5,0.1,1.1-0.1,1.6c-0.2,0.6-0.6,1-1.1,1.2l-4.9,2.4l-1,5.6
		c-0.1,0.5-0.4,0.9-0.8,1.2c-0.3,0.3-0.7,0.5-1.2,0.6l-1.3,0.2l-1.4-0.2l-1-0.9l-2.5-5.2L7.5,110.1"/>
	<path class="st6" d="M215.3,120.7L215.3,120.7c0.4-1.5,1.1-2.7,2-3.6c0.9-0.9,1.8-1.2,2.7-0.9c0.9,0.2,1.6,1,1.9,2.2
		c0.3,1.2,0.3,2.6-0.1,4.1v0c-0.2,0.9-0.8,1.6-1.6,2.1c-0.8,0.5-1.7,0.6-2.6,0.4c-0.9-0.3-1.6-0.8-2.1-1.6
		C215.2,122.5,215.1,121.6,215.3,120.7"/>
	<path class="st6" d="M205.3,122L205.3,122c-0.2-1.5,0.1-2.9,0.6-4c0.5-1.1,1.2-1.8,2.2-1.9c0.9-0.1,1.8,0.4,2.6,1.4
		c0.8,1,1.2,2.3,1.4,3.8v0.1c0.1,0.9-0.1,1.8-0.7,2.5c-0.6,0.7-1.3,1.2-2.3,1.2c-1,0.1-1.8-0.2-2.5-0.8
		C205.8,123.7,205.4,122.9,205.3,122"/>
	<path class="st6" d="M102.6,92.4L102.6,92.4c-0.2-1.6,0.1-2.9,0.7-4.1c0.5-1.1,1.2-1.8,2.2-1.9c0.9-0.1,1.8,0.4,2.6,1.4
		c0.8,1,1.2,2.3,1.3,3.8v0c0.1,0.9-0.1,1.8-0.7,2.5c-0.6,0.7-1.3,1.2-2.3,1.2c-1,0.1-1.8-0.1-2.5-0.8
		C103.1,94.1,102.7,93.3,102.6,92.4"/>
	<path class="st6" d="M35.2,106.9c-0.8-1.3-1.2-2.7-1.1-4c0-1.3,0.4-2.1,1.2-2.6c0.8-0.5,1.8-0.4,2.9,0.2s2,1.6,2.8,2.9l0,0
		c0.5,0.8,0.6,1.7,0.4,2.6c-0.2,0.9-0.8,1.6-1.6,2.1c-0.8,0.4-1.7,0.5-2.6,0.3C36.4,108.2,35.7,107.7,35.2,106.9"/>
	<path class="st6" d="M40.6,105.2c0-1.6,0.3-2.9,1.1-4c0.6-1.1,1.4-1.6,2.3-1.6c1,0,1.8,0.6,2.4,1.6c0.7,1.1,1,2.4,1,3.9v0.1
		c0,0.9-0.3,1.7-1,2.5c-0.7,0.6-1.5,1-2.4,1c-1-0.1-1.8-0.4-2.4-1.1C40.9,106.9,40.6,106.1,40.6,105.2"/>
	<rect x="0" y="0" class="st7" width="256" height="256"/>
</g>
</svg>
